<mxfile host="app.diagrams.net" modified="2024-05-19T10:37:38.848Z" agent="Mozilla/5.0 (Windows NT 10.0; Win64; x64) AppleWebKit/537.36 (KHTML, like Gecko) Chrome/120.0.0.0 Safari/537.36" version="24.4.4" etag="nvJpFYT0X-ASyhyyTDPJ" type="github">
  <diagram name="第 1 页" id="6juX_oo3U85sf9RQ1iuz">
    <mxGraphModel>
      <root>
        <mxCell id="0" />
        <mxCell id="1" parent="0" />
      </root>
    </mxGraphModel>
  </diagram>
</mxfile>
